<svg width="12" height="8" viewBox="0 0 12 8" fill="none" xmlns="http://www.w3.org/2000/svg">
<path d="M-0.00195274 1.44898C-0.00178235 1.29389 0.0442012 1.1423 0.130225 1.01325C0.216249 0.884199 0.338479 0.783437 0.481571 0.723613C0.624663 0.663789 0.782239 0.647569 0.934517 0.67699C1.0868 0.706411 1.22699 0.780162 1.3375 0.888983L5.97815 5.45018L10.666 0.885483C10.8157 0.739746 11.0171 0.659421 11.2259 0.662178C11.4348 0.664935 11.634 0.750548 11.7797 0.900183C11.9255 1.04982 12.0058 1.25122 12.0031 1.46008C12.0003 1.66894 11.9147 1.86815 11.765 2.01388L6.52555 7.11548C6.42817 7.21108 6.30753 7.2796 6.17555 7.31428C6.107 7.33212 6.03636 7.34059 5.96555 7.33948H5.9631C5.7687 7.33666 5.58226 7.26183 5.43985 7.12948L0.233247 2.01038C0.158677 1.93715 0.0994648 1.84978 0.0590787 1.75338C0.0186926 1.65698 -0.00205609 1.5535 -0.00195274 1.44898Z" fill="#6D757C"/>
</svg>
