<svg width="32" height="32" viewBox="0 0 32 32" fill="none" xmlns="http://www.w3.org/2000/svg">
<g clip-path="url(#clip0_86_16)">
<mask id="mask0_86_16" style="mask-type:luminance" maskUnits="userSpaceOnUse" x="0" y="0" width="32" height="32">
<path d="M26 0H6C2.68629 0 0 2.68629 0 6V26C0 29.3137 2.68629 32 6 32H26C29.3137 32 32 29.3137 32 26V6C32 2.68629 29.3137 0 26 0Z" fill="white"/>
</mask>
<g mask="url(#mask0_86_16)">
<path d="M6.875 67.5C27.3786 67.5 44 50.8786 44 30.375C44 9.87143 27.3786 -6.75 6.875 -6.75C-13.6286 -6.75 -30.25 9.87143 -30.25 30.375C-30.25 50.8786 -13.6286 67.5 6.875 67.5Z" fill="url(#paint0_linear_86_16)"/>
</g>
<path d="M20.5 12.75C21.1904 12.75 21.75 12.1904 21.75 11.5C21.75 10.8096 21.1904 10.25 20.5 10.25C19.8096 10.25 19.25 10.8096 19.25 11.5C19.25 12.1904 19.8096 12.75 20.5 12.75Z" fill="white"/>
<path d="M16 12C15.2089 12 14.4355 12.2346 13.7777 12.6741C13.1199 13.1136 12.6072 13.7384 12.3045 14.4693C12.0017 15.2002 11.9225 16.0044 12.0769 16.7804C12.2312 17.5563 12.6122 18.269 13.1716 18.8284C13.731 19.3878 14.4437 19.7688 15.2196 19.9231C15.9956 20.0775 16.7998 19.9983 17.5307 19.6955C18.2616 19.3928 18.8864 18.8801 19.3259 18.2223C19.7654 17.5645 20 16.7911 20 16C20 14.9391 19.5786 13.9217 18.8284 13.1716C18.0783 12.4214 17.0609 12 16 12ZM16 18C15.6044 18 15.2178 17.8827 14.8889 17.6629C14.56 17.4432 14.3036 17.1308 14.1522 16.7654C14.0009 16.3999 13.9613 15.9978 14.0384 15.6098C14.1156 15.2219 14.3061 14.8655 14.5858 14.5858C14.8655 14.3061 15.2219 14.1156 15.6098 14.0384C15.9978 13.9613 16.3999 14.0009 16.7654 14.1522C17.1308 14.3036 17.4432 14.56 17.6629 14.8889C17.8827 15.2178 18 15.6044 18 16C18 16.5304 17.7893 17.0391 17.4142 17.4142C17.0391 17.7893 16.5304 18 16 18Z" fill="white"/>
<path d="M21 8H11C9.34315 8 8 9.34315 8 11V21C8 22.6569 9.34315 24 11 24H21C22.6569 24 24 22.6569 24 21V11C24 9.34315 22.6569 8 21 8Z" stroke="white" stroke-width="2" stroke-miterlimit="10"/>
</g>
<defs>
<linearGradient id="paint0_linear_86_16" x1="-30.25" y1="30.375" x2="44" y2="30.375" gradientUnits="userSpaceOnUse">
<stop stop-color="#175021"/>
<stop offset="0.0001" stop-color="#175021"/>
<stop offset="0.0002" stop-color="#175021"/>
<stop offset="0.0003" stop-color="#175021"/>
<stop offset="0.0004" stop-color="#175021"/>
<stop offset="0.96" stop-color="#175021"/>
</linearGradient>
<clipPath id="clip0_86_16">
<rect width="32" height="32" rx="4" fill="white"/>
</clipPath>
</defs>
</svg>
