<svg width="18" height="18" viewBox="0 0 18 18" fill="none" xmlns="http://www.w3.org/2000/svg">
<g clip-path="url(#clip0_1852_326)">
<path d="M18 7.5V14.25C18 16.32 16.32 18 14.25 18H3.75C1.68 18 0 16.32 0 14.25V6C0 3.93 1.68 2.25 3.75 2.25H9.75C10.1625 2.25 10.5 2.5875 10.5 3C10.5 3.4125 10.1625 3.75 9.75 3.75H3.75C2.8875 3.75 2.145 4.2375 1.7625 4.9425L7.41 10.59C8.2875 11.4675 9.7125 11.4675 10.59 10.59L13.455 7.725C13.7475 7.4325 14.22 7.4325 14.5125 7.725C14.805 8.0175 14.805 8.49 14.5125 8.7825L11.6475 11.6475C10.92 12.375 9.9525 12.7425 8.9925 12.7425C8.0325 12.7425 7.0725 12.375 6.3375 11.6475L1.5 6.8025V14.25C1.5 15.4875 2.5125 16.5 3.75 16.5H14.25C15.4875 16.5 16.5 15.4875 16.5 14.25V7.5C16.5 7.0875 16.8375 6.75 17.25 6.75C17.6625 6.75 18 7.0875 18 7.5ZM12 3C12 1.3425 13.3425 0 15 0C16.6575 0 18 1.3425 18 3C18 4.6575 16.6575 6 15 6C13.3425 6 12 4.6575 12 3ZM13.5 3C13.5 3.825 14.175 4.5 15 4.5C15.825 4.5 16.5 3.825 16.5 3C16.5 2.175 15.825 1.5 15 1.5C14.175 1.5 13.5 2.175 13.5 3Z" fill="#FC6B21"/>
</g>
<defs>
<clipPath id="clip0_1852_326">
<rect width="18" height="18" fill="white"/>
</clipPath>
</defs>
</svg>
