<svg width="29" height="32" viewBox="0 0 29 32" fill="none" xmlns="http://www.w3.org/2000/svg">
<path d="M15.2892 31.1976L15.2733 31.2005L15.1708 31.251L15.142 31.2568L15.1218 31.251L15.0193 31.2005C15.0039 31.1957 14.9923 31.1981 14.9846 31.2077L14.9789 31.2221L14.9543 31.8399L14.9616 31.8688L14.976 31.8875L15.1261 31.9944L15.1478 32.0001L15.1651 31.9944L15.3152 31.8875L15.3325 31.8644L15.3383 31.8399L15.3137 31.2236C15.3099 31.2082 15.3017 31.1995 15.2892 31.1976ZM15.6717 31.0345L15.6529 31.0374L15.3859 31.1716L15.3715 31.1861L15.3671 31.2019L15.3931 31.8226L15.4003 31.8399L15.4119 31.85L15.702 31.9843C15.7203 31.9891 15.7343 31.9852 15.7439 31.9727L15.7496 31.9525L15.7006 31.0663C15.6958 31.0489 15.6861 31.0383 15.6717 31.0345ZM14.6397 31.0374C14.6333 31.0335 14.6257 31.0323 14.6185 31.0339C14.6112 31.0355 14.6048 31.0399 14.6007 31.046L14.592 31.0663L14.543 31.9525C14.5439 31.9698 14.5521 31.9814 14.5675 31.9871L14.5892 31.9843L14.8793 31.85L14.8937 31.8385L14.8995 31.8226L14.924 31.2019L14.9197 31.1846L14.9053 31.1702L14.6397 31.0374Z" fill="white"/>
<path d="M14.434 0C22.4059 0 28.868 6.46209 28.868 14.434C28.868 22.4059 22.4059 28.868 14.434 28.868C11.9773 28.8714 9.56067 28.2453 7.41475 27.0493L6.97451 26.7924L2.59813 28.0799C2.35997 28.15 2.10784 28.1582 1.86563 28.1037C1.62342 28.0491 1.39916 27.9336 1.21411 27.768C1.02906 27.6025 0.889352 27.3925 0.808232 27.1578C0.727113 26.9231 0.707268 26.6717 0.750579 26.4272L0.788107 26.2698L2.07562 21.8935C0.714571 19.6436 -0.00333777 17.0635 1.16668e-05 14.434C1.16668e-05 6.46209 6.46211 0 14.434 0ZM14.434 2.8868C12.3665 2.88642 10.3368 3.44114 8.55695 4.49303C6.77706 5.54492 5.31223 7.05539 4.31543 8.86671C3.31863 10.678 2.82642 12.7238 2.89021 14.7903C2.954 16.8568 3.57145 18.8682 4.67807 20.6146C4.96386 21.065 5.08655 21.6192 4.98984 22.1692L4.93355 22.4044L4.29701 24.571L6.46355 23.9344C7.08854 23.7497 7.73807 23.8623 8.25336 24.1899C9.76652 25.148 11.4818 25.741 13.2636 25.922C15.0454 26.1031 16.8449 25.8671 18.5198 25.2329C20.1948 24.5987 21.6992 23.5835 22.9142 22.2677C24.1292 20.9519 25.0215 19.3715 25.5206 17.6515C26.0196 15.9314 26.1117 14.1189 25.7896 12.3571C25.4674 10.5953 24.7399 8.93262 23.6645 7.50044C22.5891 6.06827 21.1953 4.90587 19.5933 4.10514C17.9913 3.30442 16.225 2.88731 14.434 2.8868ZM10.251 7.48258C10.411 7.41408 10.5859 7.38805 10.7589 7.40702C10.9319 7.42598 11.097 7.4893 11.2383 7.59083C11.9658 8.122 12.5431 8.83504 13.0397 9.53076L13.5117 10.2149L13.7325 10.5397C13.8604 10.7258 13.9232 10.949 13.9112 11.1745C13.8992 11.4 13.813 11.6153 13.6661 11.7868L13.5579 11.8965L12.2242 12.8867C12.1607 12.9337 12.1161 13.0019 12.0984 13.0788C12.0806 13.1558 12.091 13.2366 12.1274 13.3067C12.4306 13.8552 12.9661 14.6736 13.5809 15.2885C14.1973 15.9034 15.0532 16.4749 15.6392 16.8113C15.7663 16.8834 15.9193 16.8603 16.0232 16.7665L16.078 16.7016L16.9455 15.3809C17.1045 15.1684 17.3398 15.0259 17.6017 14.9834C17.8636 14.9408 18.1319 15.0016 18.3499 15.1528L19.1337 15.6998C19.9131 16.2556 20.6623 16.8531 21.2555 17.6109C21.3653 17.7533 21.435 17.9224 21.4576 18.1008C21.4802 18.2792 21.4548 18.4603 21.384 18.6256C20.8124 19.9593 19.3646 21.0953 17.8606 21.0404L17.6311 21.026L17.3554 21L17.1995 20.9798L16.856 20.9221C15.5223 20.6709 13.3846 19.9146 11.169 17.7004C8.95485 15.4848 8.19851 13.3471 7.94736 12.0134L7.88963 11.6699L7.85354 11.3696L7.83478 11.1171L7.829 11.0088C7.77415 9.50189 8.91588 8.05416 10.251 7.48258Z" fill="white"/>
</svg>
