<svg width="18" height="18" viewBox="0 0 18 18" fill="none" xmlns="http://www.w3.org/2000/svg">
<path d="M11.2342 5.26703V2.26703C11.2342 2.06812 11.3132 1.87735 11.4538 1.7367C11.5945 1.59605 11.7852 1.51703 11.9842 1.51703C12.1831 1.51703 12.3738 1.59605 12.5145 1.7367C12.6551 1.87735 12.7342 2.06812 12.7342 2.26703V4.22528C13.2067 3.74978 16.2599 0.680779 16.7039 0.236779C16.7731 0.165146 16.8559 0.108009 16.9474 0.0687026C17.0389 0.0293959 17.1373 0.00870618 17.2369 0.00784082C17.3364 0.00697546 17.4352 0.0259517 17.5274 0.0636624C17.6195 0.101373 17.7033 0.157063 17.7737 0.227482C17.8441 0.297902 17.8998 0.381641 17.9375 0.473813C17.9752 0.565985 17.9942 0.664745 17.9933 0.76433C17.9925 0.863914 17.9718 0.962329 17.9325 1.05383C17.8932 1.14534 17.836 1.22809 17.7644 1.29728C17.3204 1.74128 14.2829 4.79603 13.8134 5.26703H15.7342C15.9331 5.26703 16.1238 5.34605 16.2645 5.4867C16.4051 5.62735 16.4842 5.81812 16.4842 6.01703C16.4842 6.21594 16.4051 6.40671 16.2645 6.54736C16.1238 6.68801 15.9331 6.76703 15.7342 6.76703H12.7342C12.3363 6.76703 11.9548 6.60899 11.6735 6.32769C11.3922 6.04639 11.2342 5.66485 11.2342 5.26703ZM17.3054 12.5713C17.74 13.0071 17.9841 13.5975 17.9841 14.213C17.9841 14.8285 17.74 15.4189 17.3054 15.8548L16.6214 16.6423C10.4782 22.5208 -4.46784 7.57928 1.32141 1.41728L2.18391 0.667279C2.62014 0.244688 3.20521 0.0108328 3.81253 0.0163068C4.41986 0.0217807 5.00062 0.266144 5.42916 0.696529C5.45241 0.719029 6.84141 2.52503 6.84141 2.52503C7.25235 2.95894 7.481 3.53406 7.48016 4.13168C7.47933 4.72929 7.24906 5.30378 6.83691 5.73653L5.96841 6.82853C6.44915 7.9963 7.15585 9.0576 8.04792 9.95147C8.93999 10.8453 9.99986 11.5542 11.1667 12.0373L12.2654 11.1635C12.6973 10.7503 13.2718 10.5193 13.8695 10.5184C14.4673 10.5176 15.0424 10.747 15.4754 11.159C15.4754 11.159 17.2822 12.5488 17.3054 12.5713ZM16.2742 13.6618C16.2742 13.6618 14.4794 12.2803 14.4562 12.2578C14.3016 12.1046 14.0929 12.0186 13.8753 12.0186C13.6577 12.0186 13.4489 12.1046 13.2944 12.2578C13.2742 12.2773 11.7614 13.4833 11.7614 13.4833C11.6595 13.5644 11.5381 13.6176 11.4094 13.6376C11.2806 13.6576 11.1489 13.6437 11.0272 13.5973C9.51473 13.0346 8.14096 12.1533 6.99898 11.0131C5.857 9.87294 4.97351 8.50057 4.40841 6.98903C4.35831 6.86562 4.34197 6.7311 4.36109 6.59928C4.3802 6.46747 4.43407 6.34313 4.51716 6.23903C4.51716 6.23903 5.72316 4.72853 5.74341 4.70903C5.89661 4.55452 5.98257 4.34574 5.98257 4.12815C5.98257 3.91057 5.89661 3.70179 5.74341 3.54728C5.72091 3.52478 4.33941 1.72853 4.33941 1.72853C4.18259 1.58791 3.97791 1.5126 3.76735 1.51804C3.55678 1.52348 3.35627 1.60925 3.20691 1.75778L2.34441 2.50778C-1.88709 7.59503 11.0669 19.8305 15.5242 15.62L16.2082 14.8318C16.3694 14.6838 16.4666 14.4787 16.4789 14.2602C16.4912 14.0417 16.4178 13.827 16.2742 13.6618Z" fill="#FC6B21"/>
</svg>
