<svg width="18" height="18" viewBox="0 0 18 18" fill="none" xmlns="http://www.w3.org/2000/svg">
<g clip-path="url(#clip0_1852_328)">
<path d="M9.09538 16.2609C9.05638 16.2294 9.02413 16.2084 8.98287 16.1739C8.47437 15.6354 7.66888 14.6911 6.96688 13.4844H8.14513L7.63213 11.9844H6.22738C5.85763 11.0589 5.60862 10.0441 5.60862 8.98438C5.60862 7.92462 5.85913 6.91062 6.23038 5.98438H11.7309C11.9514 6.53638 12.1359 7.11538 12.2431 7.72213L13.8204 8.26213C13.7521 7.46563 13.5736 6.70363 13.3306 5.98513H15.8529C16.2211 6.82438 16.4341 7.74388 16.4694 8.70913C16.4731 8.80138 16.4836 8.89213 16.4836 8.98513C16.4836 9.04738 16.4761 9.10812 16.4746 9.17037L17.9491 9.67513C17.9664 9.44637 17.9844 9.21838 17.9844 8.98588C17.9844 4.02163 13.9464 -0.015625 8.98438 -0.015625C4.02238 -0.015625 -0.015625 4.02163 -0.015625 8.98438C-0.015625 13.9471 4.02163 17.9844 8.98438 17.9844C9.21688 17.9844 9.44637 17.9724 9.67513 17.9551L9.09538 16.2609ZM6.96688 4.48438C7.66663 3.28212 8.47663 2.33337 8.98438 1.79488C9.49137 2.33188 10.2969 3.28363 10.9951 4.48438H6.96688ZM14.9694 4.48438H12.7051C12.1629 3.39613 11.5119 2.46762 10.9351 1.75063C12.5679 2.19163 13.9779 3.16887 14.9694 4.48438ZM7.02462 1.75288C6.44863 2.46763 5.80137 3.40138 5.25987 4.48438H2.99712C3.98712 3.17112 5.39563 2.19462 7.02462 1.75288ZM2.11438 5.98438H4.63437C4.31787 6.91813 4.10938 7.92462 4.10938 8.98438C4.10938 10.0441 4.31787 11.0506 4.63437 11.9844H2.11438C1.71088 11.0649 1.48362 10.0509 1.48362 8.98438C1.48362 7.91787 1.71088 6.90387 2.11438 5.98438ZM2.99788 13.4844H5.26062C5.80662 14.5771 6.45988 15.5011 7.03888 16.2196C5.40313 15.7794 3.99088 14.8014 2.99788 13.4844ZM7.77838 7.77987L11.2809 18.0181L13.4364 13.4386L18.0174 11.2831L7.77838 7.77987ZM12.3091 12.3106L11.5014 14.0281L10.1881 10.1896L14.0266 11.5029L12.3091 12.3106Z" fill="#FC6B21"/>
</g>
<defs>
<clipPath id="clip0_1852_328">
<rect width="18" height="18" fill="white"/>
</clipPath>
</defs>
</svg>
