<svg width="32" height="32" viewBox="0 0 32 32" fill="none" xmlns="http://www.w3.org/2000/svg">
<g clip-path="url(#clip0_1852_281)">
<path d="M14.0078 18.999L19.2124 16.0015L14.0078 13.0039V18.999Z" fill="#397644"/>
<path d="M29.6921 0H2.30786C1.0332 0 0 1.0332 0 2.30786V29.6921C0 30.9668 1.0332 32 2.30786 32H29.6921C30.9668 32 32 30.9668 32 29.6921V2.30786C32 1.0332 30.9668 0 29.6921 0ZM25.9976 16.0164C25.9976 16.0164 25.9976 19.2612 25.5859 20.8259C25.3552 21.6824 24.6799 22.3577 23.8235 22.5881C22.2588 23 16 23 16 23C16 23 9.75757 23 8.17651 22.5718C7.32007 22.3413 6.64478 21.6658 6.41406 20.8093C6.0022 19.2612 6.0022 16 6.0022 16C6.0022 16 6.0022 12.7554 6.41406 11.1907C6.64453 10.3342 7.33643 9.64233 8.17651 9.41187C9.74121 9 16 9 16 9C16 9 22.2588 9 23.8235 9.42822C24.6799 9.65869 25.3552 10.3342 25.5859 11.1907C26.0142 12.7554 25.9976 16.0164 25.9976 16.0164Z" fill="#397644"/>
</g>
<defs>
<clipPath id="clip0_1852_281">
<rect width="32" height="32" rx="5" fill="white"/>
</clipPath>
</defs>
</svg>
