<svg width="50" height="50" viewBox="0 0 50 50" fill="none" xmlns="http://www.w3.org/2000/svg">
<path d="M25 50C38.8071 50 50 38.8071 50 25C50 11.1929 38.8071 0 25 0C11.1929 0 0 11.1929 0 25C0 38.8071 11.1929 50 25 50Z" fill="#2AA81A"/>
<path d="M33.8192 16.1808C31.7389 14.0769 28.975 12.7862 26.0264 12.5415C23.0778 12.2969 20.1389 13.1145 17.7403 14.8467C15.3417 16.5789 13.6415 19.1117 12.9465 21.9876C12.2516 24.8635 12.6078 27.8932 13.9508 30.5295L12.635 36.9177C12.6209 36.9815 12.6204 37.0475 12.6334 37.1115C12.6465 37.1756 12.6728 37.2362 12.7107 37.2894C12.765 37.3699 12.8426 37.432 12.9331 37.4673C13.0236 37.5026 13.1228 37.5094 13.2173 37.4867L19.4673 36.0032C22.0964 37.311 25.1043 37.6434 27.9555 36.9413C30.8068 36.2393 33.3164 34.5482 35.0377 32.1692C36.759 29.7902 37.5802 26.8776 37.3553 23.9498C37.1304 21.022 35.8738 18.269 33.8094 16.1808H33.8192ZM31.8653 31.7631C30.4265 33.1992 28.5739 34.1484 26.5677 34.477C24.5616 34.8057 22.5029 34.4973 20.6811 33.5953L19.8061 33.1611L15.9673 34.069V34.0196L16.7765 30.1479L16.3488 29.3058C15.4173 27.4791 15.0884 25.4042 15.4093 23.3789C15.7302 21.3537 16.6844 19.4821 18.135 18.0328C19.9564 16.2133 22.4256 15.1913 25.0002 15.1913C27.5747 15.1913 30.0439 16.2133 31.8653 18.0328L31.908 18.092C33.7058 19.9173 34.7093 22.3791 34.7001 24.941C34.6909 27.5029 33.6696 29.9574 31.8587 31.7696L31.8653 31.7631Z" fill="white"/>
<path d="M31.5252 28.9472C31.0549 29.6873 30.3081 30.5919 29.3772 30.8189C27.7325 31.2136 25.2292 30.8189 22.0943 27.9209L22.0549 27.8847C19.3279 25.3386 18.6042 23.2169 18.7654 21.536C18.8608 20.5788 19.6568 19.7169 20.3279 19.1511C20.4346 19.0612 20.5608 18.9974 20.6966 18.965C20.8323 18.9325 20.9737 18.9323 21.1096 18.9642C21.2454 18.9962 21.3719 19.0595 21.4789 19.149C21.5859 19.2386 21.6705 19.352 21.7259 19.4801L22.7358 21.763C22.8017 21.9099 22.8264 22.072 22.8073 22.232C22.7882 22.3919 22.7259 22.5436 22.6272 22.6709L22.1141 23.3288C22.0074 23.4653 21.9439 23.6306 21.9316 23.8034C21.9193 23.9763 21.9587 24.1489 22.045 24.2992C22.5324 25.0176 23.1157 25.6661 23.7785 26.2268C24.4917 26.9132 25.3006 27.4926 26.1799 27.9472C26.3403 28.0119 26.5164 28.0273 26.6857 27.9916C26.855 27.9559 27.0099 27.8705 27.1305 27.7465L27.7193 27.1478C27.8314 27.0274 27.9746 26.9402 28.1331 26.8961C28.2916 26.852 28.4592 26.8526 28.6174 26.8978L31.0187 27.5853C31.1547 27.6241 31.2798 27.6943 31.3837 27.7903C31.4876 27.8863 31.5674 28.0054 31.6168 28.138C31.6661 28.2706 31.6835 28.413 31.6676 28.5535C31.6517 28.6941 31.6029 28.829 31.5252 28.9472Z" fill="white"/>
</svg>
